<svg width="240" height="55" viewBox="0 0 240 55" fill="none" xmlns="http://www.w3.org/2000/svg">
<path d="M61.817 40.3151C61.817 38.4709 61.8035 36.6285 61.8209 34.7842C61.8384 32.8604 62.6518 31.3403 64.3 30.3502C64.8902 29.9949 65.0455 29.6494 64.9368 28.9854C62.9605 16.9141 53.939 7.39181 42.5899 4.75934C25.9972 0.91353 10.1383 12.1209 7.23409 28.5913C7.07878 29.4747 7.16614 29.9231 8.00868 30.4084C9.55982 31.2995 10.3849 32.7594 10.3965 34.5785C10.4198 38.4282 10.4257 42.2759 10.3965 46.1256C10.3771 48.8163 8.14458 51.078 5.49464 51.1692C2.64668 51.2663 0.159812 49.2551 0.0763344 46.4945C-0.0479119 42.4234 0.00450455 38.3466 0.0588623 34.2717C0.0802171 32.6099 0.975179 31.3306 2.33801 30.424C2.78257 30.1269 2.98253 29.8338 3.06213 29.2941C5.12966 15.2213 15.1742 3.94009 28.3171 0.892175C43.3878 -2.60225 58.4177 4.3769 65.5425 18.1741C67.3499 21.6743 68.5283 25.3726 69.0175 29.2844C69.0738 29.7406 69.2427 30.0182 69.6581 30.2648C71.417 31.3131 72.2479 32.9186 72.2576 34.9415C72.2751 38.531 72.2751 42.1225 72.2576 45.7121C72.2421 48.8784 69.9707 51.1964 66.948 51.1712C63.9933 51.1459 61.8267 48.8182 61.817 45.6519C61.8112 43.8736 61.817 42.0934 61.817 40.3151Z" fill="#003F6D"/>
<path d="M49.0477 39.3441C51.5229 37.0844 53.8758 34.9353 56.3841 32.6445C57.1004 35.9021 57.7896 39.0355 58.4963 42.2484C57.6498 42.1843 56.9684 41.8912 56.2948 41.633C55.6541 41.3864 55.3629 41.501 55.0581 42.1474C52.216 48.1753 47.5568 52.0541 41.1095 53.7451C29.2615 56.8532 16.9106 48.383 15.3808 36.304C13.9831 25.2713 21.2593 15.2831 31.8202 13.0039C42.1753 10.7675 53.0275 17.1312 56.054 27.3272C56.2307 27.9193 56.2191 28.1328 55.5299 28.096C54.5631 28.0455 53.4934 28.3289 52.647 28.0028C51.8044 27.6766 51.8103 26.4536 51.3929 25.6479C47.9955 19.0939 40.665 15.3005 33.5577 16.4634C26.1612 17.6748 20.3779 23.3241 19.1568 30.5265C17.3319 41.2952 25.7244 50.9825 36.6522 50.5845C43.3867 50.338 48.2751 47.0105 51.4763 41.1224C51.8258 40.4798 51.8433 40.0974 51.0046 39.9304C50.3872 39.8081 49.7912 39.5693 49.0477 39.3422V39.3441Z" fill="#EA8C1C"/>
<circle cx="29.1461" cy="32.9098" r="1.88047" fill="#003F6D"/>
<circle cx="35.7281" cy="32.9098" r="1.88047" fill="#003F6D"/>
<circle cx="42.3102" cy="32.9098" r="1.88047" fill="#003F6D"/>
<path d="M100.36 37.12C102.42 37.12 104.26 36.42 105.5 35.06L104.56 34.12C103.42 35.3 102.02 35.8 100.42 35.8C97.04 35.8 94.5 33.32 94.5 30C94.5 26.68 97.04 24.2 100.42 24.2C102.02 24.2 103.42 24.7 104.56 25.86L105.5 24.92C104.26 23.56 102.42 22.88 100.38 22.88C96.16 22.88 93.04 25.9 93.04 30C93.04 34.1 96.16 37.12 100.36 37.12ZM118.763 37H120.323L113.923 23H112.463L106.063 37H107.603L109.283 33.26H117.083L118.763 37ZM109.823 32.06L113.183 24.54L116.543 32.06H109.823ZM122.639 37H131.959V35.72H124.119V23H122.639V37ZM134.417 37H143.737V35.72H135.897V23H134.417V37ZM155.838 37.24C159.838 37.24 161.778 35.24 161.778 32.9C161.778 27.76 153.638 29.54 153.638 26.96C153.638 26.08 154.378 25.36 156.298 25.36C157.538 25.36 158.878 25.72 160.178 26.46L161.178 24C159.878 23.18 158.078 22.76 156.318 22.76C152.338 22.76 150.418 24.74 150.418 27.12C150.418 32.32 158.558 30.52 158.558 33.14C158.558 34 157.778 34.64 155.858 34.64C154.178 34.64 152.418 34.04 151.238 33.18L150.138 35.62C151.378 36.58 153.618 37.24 155.838 37.24ZM167.212 34.4V31.16H173.712V28.64H167.212V25.6H174.572V23H163.992V37H174.832V34.4H167.212ZM189.81 37L186.67 32.5C188.49 31.72 189.55 30.18 189.55 28.08C189.55 24.94 187.21 23 183.47 23H177.41V37H180.65V33.1H183.47H183.63L186.33 37H189.81ZM186.27 28.08C186.27 29.6 185.27 30.52 183.29 30.52H180.65V25.64H183.29C185.27 25.64 186.27 26.54 186.27 28.08ZM202.357 23L198.037 33L193.777 23H190.277L196.317 37H199.517L205.577 23H202.357ZM206.746 37H209.986V23H206.746V37ZM220.008 37.24C222.448 37.24 224.468 36.36 225.788 34.74L223.708 32.82C222.768 33.92 221.588 34.48 220.188 34.48C217.568 34.48 215.708 32.64 215.708 30C215.708 27.36 217.568 25.52 220.188 25.52C221.588 25.52 222.768 26.08 223.708 27.16L225.788 25.24C224.468 23.64 222.448 22.76 220.028 22.76C215.668 22.76 212.428 25.78 212.428 30C212.428 34.22 215.668 37.24 220.008 37.24ZM231.196 34.4V31.16H237.696V28.64H231.196V25.6H238.556V23H227.976V37H238.816V34.4H231.196Z" fill="#EA8C1C"/>
</svg>
