<svg width="197" height="42" viewBox="0 0 197 42" fill="none" xmlns="http://www.w3.org/2000/svg">
<path d="M11.86 20.62C12.15 20.78 12.44 20.93 12.72 21.09C14.01 21.83 15.3 22.57 16.59 23.32C17.31 23.74 18.02 24.16 18.74 24.58C19.75 25.17 20.77 25.75 21.79 26.34C22.32 26.64 22.84 26.95 23.38 27.23C23.48 27.29 23.67 27.29 23.77 27.23C24.62 26.76 25.47 26.26 26.31 25.77C26.36 25.74 26.4 25.69 26.48 25.62C26.22 25.45 25.98 25.29 25.73 25.15C24.12 24.21 22.51 23.27 20.89 22.34C19.38 21.47 17.86 20.63 16.35 19.76C14.38 18.62 12.41 17.48 10.44 16.33C9.97 16.06 9.5 15.77 9.02 15.51C8.55 15.26 8.36 14.79 8.12 14.38C7.38 13.13 6.66 11.88 5.94 10.62C5.88 10.51 5.84 10.39 5.79 10.27L5.85 10.22C6.45 10.57 7.04 10.91 7.64 11.26C8.42 11.71 9.19 12.17 9.97 12.62C11.46 13.48 12.95 14.34 14.44 15.2C15.88 16.03 17.33 16.84 18.77 17.68C20.41 18.63 22.04 19.59 23.69 20.54C25.31 21.48 26.95 22.41 28.57 23.34C28.81 23.48 29.04 23.62 29.27 23.76C29.46 23.87 29.64 23.87 29.83 23.76C30.62 23.3 31.42 22.84 32.21 22.37C32.47 22.22 32.47 22.16 32.21 22.01C31.11 21.36 30 20.71 28.89 20.07C27.47 19.25 26.04 18.43 24.62 17.61C22.79 16.55 20.97 15.49 19.14 14.44C17.5 13.49 15.85 12.55 14.21 11.61C12.43 10.58 10.66 9.55 8.88 8.52C7.04 7.45 5.21 6.35 3.34 5.33C2.74 5 2.41 4.52 2.1 3.98C1.41 2.79 0.719997 1.59 0.0399971 0.39C-0.0100029 0.3 0.01 0.18 0 0.07C0.1 0.09 0.219999 0.07 0.299999 0.12C1.85 1 3.39 1.88 4.93 2.77C6.81 3.86 8.68 4.95 10.56 6.04C11.68 6.69 12.79 7.35 13.91 7.99C15.74 9.04 17.58 10.07 19.41 11.13C20.65 11.84 21.87 12.58 23.11 13.3C24.47 14.09 25.84 14.86 27.21 15.64C27.91 16.04 28.6 16.44 29.29 16.85C29.5 16.97 29.66 16.96 29.86 16.85C31.4 15.96 32.94 15.07 34.48 14.19C36.29 13.15 38.11 12.11 39.92 11.06C41.59 10.09 43.26 9.11 44.93 8.14C46.96 6.96 49 5.79 51.03 4.61C52.81 3.58 54.6 2.56 56.38 1.54C57.2 1.07 58.02 0.59 58.84 0.12C58.94 0.07 59.05 0.04 59.15 0L59.22 0.06C59.12 0.26 59.03 0.46 58.92 0.66C58.14 2.03 57.35 3.39 56.55 4.75C56.45 4.92 56.25 5.05 56.07 5.16C54.73 5.95 53.39 6.74 52.04 7.52C50.58 8.36 49.11 9.19 47.64 10.03C46.31 10.79 44.99 11.56 43.66 12.32C42.37 13.06 41.08 13.8 39.8 14.54C38.43 15.33 37.06 16.13 35.69 16.93C34.74 17.48 33.78 18.03 32.82 18.59C32.75 18.63 32.69 18.68 32.61 18.74C32.66 18.8 32.69 18.87 32.75 18.9C33.53 19.36 34.33 19.79 35.1 20.27C35.43 20.48 35.69 20.4 35.99 20.23C37.24 19.5 38.49 18.77 39.74 18.05C41.18 17.22 42.62 16.39 44.06 15.56C45.61 14.67 47.16 13.78 48.71 12.88C50 12.14 51.28 11.39 52.57 10.64C52.79 10.51 53.01 10.39 53.31 10.23C53.27 10.37 53.26 10.45 53.22 10.51C52.7 11.43 52.17 12.35 51.64 13.26C51.35 13.76 51.03 14.24 50.77 14.76C50.55 15.21 50.18 15.47 49.77 15.71C48.02 16.71 46.28 17.72 44.54 18.73C42.92 19.67 41.3 20.62 39.67 21.56C38.01 22.52 36.34 23.47 34.68 24.42C32.85 25.47 31.03 26.53 29.2 27.59C28.45 28.02 27.69 28.45 26.93 28.89C26.83 28.95 26.76 29.04 26.68 29.12C26.77 29.2 26.85 29.3 26.95 29.36C27.72 29.81 28.49 30.24 29.26 30.7C29.45 30.82 29.6 30.82 29.8 30.7C31.48 29.72 33.17 28.76 34.86 27.78C36.46 26.86 38.05 25.92 39.65 24.99C41.12 24.14 42.6 23.3 44.08 22.46C45.09 21.88 46.09 21.29 47.1 20.7C47.15 20.67 47.2 20.65 47.32 20.6C47.29 20.72 47.28 20.79 47.25 20.85C46.58 22.01 45.91 23.17 45.23 24.33C45.1 24.56 44.95 24.78 44.85 25.02C44.64 25.51 44.24 25.8 43.8 26.05C42.59 26.74 41.39 27.43 40.19 28.12C38.48 29.11 36.78 30.11 35.07 31.1C34.33 31.53 33.59 31.95 32.86 32.37C32.79 32.41 32.72 32.47 32.57 32.58L38.49 36.01C38 36.3 37.6 36.55 37.19 36.79C36.32 37.29 35.44 37.79 34.57 38.29C33.48 38.92 32.39 39.55 31.29 40.18C30.8 40.46 30.3 40.74 29.82 41.03C29.63 41.15 29.47 41.14 29.27 41.03C27.54 40.03 25.81 39.04 24.09 38.04C23.74 37.84 23.73 37.68 24.07 37.48C24.84 37.02 25.62 36.56 26.4 36.12C26.49 36.07 26.68 36.09 26.78 36.15C27.61 36.61 28.43 37.08 29.25 37.57C29.48 37.71 29.65 37.7 29.87 37.57C30.64 37.11 31.43 36.67 32.2 36.22C32.49 36.05 32.48 35.97 32.2 35.8C30.31 34.72 28.41 33.64 26.53 32.55C24.89 31.6 23.25 30.64 21.61 29.69C19.98 28.75 18.34 27.81 16.7 26.87C16.11 26.53 15.54 26.18 14.95 25.84C14.59 25.63 14.4 25.3 14.2 24.96C13.44 23.62 12.67 22.28 11.9 20.94C11.86 20.86 11.84 20.78 11.81 20.69L11.87 20.64L11.86 20.62Z" fill="#EA8C1C"/>
<path d="M30.239 9.82025C30.369 9.62025 30.499 9.43025 30.629 9.24025C31.029 8.65025 31.439 8.05025 31.849 7.46025C31.979 7.27025 31.929 7.11025 31.819 6.93025C31.339 6.19025 30.859 5.45025 30.379 4.70025C30.339 4.64025 30.349 4.52025 30.379 4.46025C30.869 3.74025 31.379 3.03025 31.869 2.31025C32.009 2.10025 32.119 2.12025 32.239 2.31025C32.659 2.95025 33.079 3.58025 33.489 4.22025C34.099 5.17025 34.709 6.12025 35.329 7.06025C35.419 7.19025 35.439 7.29025 35.329 7.44025C34.289 8.95025 33.249 10.4603 32.209 11.9803C31.929 12.3903 31.859 12.3903 31.589 11.9803C31.159 11.3203 30.729 10.6602 30.299 9.99025C30.269 9.94025 30.239 9.88025 30.209 9.83025L30.239 9.82025Z" fill="#EA8C1C"/>
<path d="M28.9699 4.63937C28.8399 4.83937 28.7099 5.02937 28.5799 5.21937C28.1799 5.80937 27.7699 6.40937 27.3599 6.99937C27.2299 7.18937 27.2799 7.34938 27.3899 7.52938C27.8699 8.26937 28.3499 9.00937 28.8299 9.75937C28.8699 9.81937 28.8599 9.93938 28.8299 9.99938C28.3399 10.7194 27.8299 11.4294 27.3399 12.1494C27.1999 12.3594 27.0899 12.3394 26.9699 12.1494C26.5499 11.5094 26.1299 10.8794 25.7199 10.2394C25.1099 9.28938 24.4999 8.33938 23.8799 7.39937C23.7899 7.26937 23.7699 7.16937 23.8799 7.01937C24.9199 5.50937 25.9599 3.99937 26.9999 2.47938C27.2799 2.06938 27.3499 2.06938 27.6199 2.47938C28.0499 3.13938 28.4799 3.79937 28.9099 4.46937C28.9399 4.51937 28.9699 4.57938 28.9999 4.62937L28.9699 4.63937Z" fill="#EA8C1C"/>
<path d="M71.524 30.108C73.378 30.108 75.034 29.478 76.15 28.254L75.304 27.408C74.278 28.47 73.018 28.92 71.578 28.92C68.536 28.92 66.25 26.688 66.25 23.7C66.25 20.712 68.536 18.48 71.578 18.48C73.018 18.48 74.278 18.93 75.304 19.974L76.15 19.128C75.034 17.904 73.378 17.292 71.542 17.292C67.744 17.292 64.936 20.01 64.936 23.7C64.936 27.39 67.744 30.108 71.524 30.108ZM88.0871 30H89.4911L83.7311 17.4H82.4171L76.6571 30H78.0431L79.5551 26.634H86.5751L88.0871 30ZM80.0411 25.554L83.0651 18.786L86.0891 25.554H80.0411ZM91.5754 30H99.9634V28.848H92.9074V17.4H91.5754V30ZM102.175 30H110.563V28.848H103.507V17.4H102.175V30ZM121.454 30.216C125.054 30.216 126.8 28.416 126.8 26.31C126.8 21.684 119.474 23.286 119.474 20.964C119.474 20.172 120.14 19.524 121.868 19.524C122.984 19.524 124.19 19.848 125.36 20.514L126.26 18.3C125.09 17.562 123.47 17.184 121.886 17.184C118.304 17.184 116.576 18.966 116.576 21.108C116.576 25.788 123.902 24.168 123.902 26.526C123.902 27.3 123.2 27.876 121.472 27.876C119.96 27.876 118.376 27.336 117.314 26.562L116.324 28.758C117.44 29.622 119.456 30.216 121.454 30.216ZM131.691 27.66V24.744H137.541V22.476H131.691V19.74H138.315V17.4H128.793V30H138.549V27.66H131.691ZM152.029 30L149.203 25.95C150.841 25.248 151.795 23.862 151.795 21.972C151.795 19.146 149.689 17.4 146.323 17.4H140.869V30H143.785V26.49H146.323H146.467L148.897 30H152.029ZM148.843 21.972C148.843 23.34 147.943 24.168 146.161 24.168H143.785V19.776H146.161C147.943 19.776 148.843 20.586 148.843 21.972ZM163.321 17.4L159.433 26.4L155.599 17.4H152.449L157.885 30H160.765L166.219 17.4H163.321ZM167.271 30H170.187V17.4H167.271V30ZM179.208 30.216C181.404 30.216 183.222 29.424 184.41 27.966L182.538 26.238C181.692 27.228 180.63 27.732 179.37 27.732C177.012 27.732 175.338 26.076 175.338 23.7C175.338 21.324 177.012 19.668 179.37 19.668C180.63 19.668 181.692 20.172 182.538 21.144L184.41 19.416C183.222 17.976 181.404 17.184 179.226 17.184C175.302 17.184 172.386 19.902 172.386 23.7C172.386 27.498 175.302 30.216 179.208 30.216ZM189.277 27.66V24.744H195.127V22.476H189.277V19.74H195.901V17.4H186.379V30H196.135V27.66H189.277Z" fill="#EA8C1C"/>
</svg>
